<?xml version="1.0" encoding="UTF-8"?>
<svg id="Ebene_1" xmlns="http://www.w3.org/2000/svg" version="1.1" viewBox="0 0 17 17">
  <!-- Generator: Adobe Illustrator 29.0.0, SVG Export Plug-In . SVG Version: 2.1.0 Build 186)  -->
  <defs>
    <style>
      .st0 {
        fill: #d8b8b8;
      }

      .st1 {
        fill: #fff;
      }

      .st2 {
        fill: #e4cdcd;
      }

      .st3 {
        fill: #841c1c;
      }
    </style>
  </defs>
  <rect class="st3" width="17" height="17"/>
  <path class="st0" d="M4.5,2.3h2c.8,0,1.4.3,1.4,1.1s-.2.7-.6.9c.5.2.8.6.8,1.1,0,.9-.7,1.2-1.5,1.2h-2.1s0-4.3,0-4.3ZM5.4,4.1h1c.3,0,.6,0,.6-.5s-.3-.5-.6-.5h-.9v1h0ZM5.4,5.9h1c.4,0,.7,0,.7-.6s-.3-.6-.7-.6h-1s0,1.2,0,1.2Z"/>
  <path class="st0" d="M10.6,2.2c1.3,0,2.1,1,2.1,2.3s-.8,2.2-2.1,2.2-2.1-1-2.1-2.2.8-2.3,2.1-2.3ZM10.6,5.9c.8,0,1.2-.7,1.2-1.4s-.3-1.5-1.2-1.5-1.2.7-1.2,1.5.3,1.4,1.2,1.4Z"/>
  <path class="st2" d="M5.3,7.8c0-.4-.5-.7-.9-.7-.8,0-1.2.7-1.2,1.5s.3,1.4,1.2,1.4.9-.4,1-1h.9c0,1.1-.8,1.7-1.9,1.7s-2.1-1-2.1-2.2.8-2.2,2.1-2.2,1.7.5,1.8,1.5h-.9Z"/>
  <path class="st2" d="M8.1,6.4h1l1.6,4.2h-1l-.3-.9h-1.6l-.3.9h-.9l1.6-4.2ZM8,9h1.1l-.5-1.6h0l-.6,1.6Z"/>
  <path class="st2" d="M11,6.4h2.3c.8,0,1.2.5,1.2,1.2s-.2.9-.7,1.1h0c.5.1.6.6.6,1,0,.3,0,.8.2,1h-.9c-.1-.3-.1-.7-.1-1,0-.4-.2-.6-.7-.6h-.9v1.7h-.9v-4.2ZM11.9,8.3h1c.4,0,.6-.2.6-.6s-.2-.6-.6-.6h-1v1.2Z"/>
  <path class="st1" d="M1.8,10.4h2.3c.8,0,1.2.5,1.2,1.2s-.2.9-.7,1.1h0c.5.1.6.6.6,1,0,.3,0,.8.2,1h-.9c-.1-.3-.1-.7-.1-1,0-.4-.2-.6-.7-.6h-.9v1.7h-.9v-4.2ZM2.7,12.3h1c.4,0,.6-.2.6-.6s-.2-.6-.6-.6h-1v1.2Z"/>
  <path class="st1" d="M6.1,10.4h.9v4.2h-.9v-4.2Z"/>
  <path class="st1" d="M7.9,10.4h3.2v.8h-2.2v.9h2.1v.7h-2.1v1h2.3v.8h-3.2v-4.2Z"/>
  <path class="st1" d="M11.7,10.4h2.3c.8,0,1.2.5,1.2,1.2s-.2.9-.7,1.1h0c.5.1.6.6.6,1,0,.3,0,.8.2,1h-.9c-.1-.3-.1-.7-.1-1,0-.4-.2-.6-.7-.6h-.9v1.7h-.9v-4.2ZM12.7,12.3h1c.4,0,.6-.2.6-.6s-.2-.6-.6-.6h-1v1.2Z"/>
</svg>