<?xml version="1.0" encoding="UTF-8"?>
<svg id="Ebene_1" xmlns="http://www.w3.org/2000/svg" version="1.1" viewBox="0 0 17 17">
  <!-- Generator: Adobe Illustrator 29.0.0, SVG Export Plug-In . SVG Version: 2.1.0 Build 186)  -->
  <defs>
    <style>
      .st0 {
        fill: #c2e7ff;
      }

      .st1 {
        fill: #fff;
      }

      .st2 {
        fill: #1c3084;
      }

      .st3 {
        fill: #6bc5ff;
      }
    </style>
  </defs>
  <rect class="st2" width="17" height="17"/>
  <g>
    <path class="st1" d="M4.5,2.3h2c.8,0,1.4.3,1.4,1.1s-.2.7-.6.9c.5.2.8.6.8,1.1,0,.9-.7,1.2-1.5,1.2h-2.1V2.3ZM5.4,4.1h1c.3,0,.6-.1.6-.5s-.3-.5-.6-.5h-.9v1ZM5.4,5.9h1c.4,0,.7-.1.7-.6s-.3-.6-.7-.6h-1v1.2Z"/>
    <path class="st1" d="M10.6,2.2c1.3,0,2.1,1,2.1,2.3s-.8,2.2-2.1,2.2-2.1-1-2.1-2.2.8-2.3,2.1-2.3ZM10.6,5.9c.8,0,1.2-.7,1.2-1.4s-.3-1.5-1.2-1.5-1.2.7-1.2,1.5.3,1.4,1.2,1.4Z"/>
    <path class="st0" d="M2.2,6.3h1.3l1,2.9h0l.9-2.9h1.3v4.3h-.9v-3h0l-1,3h-.7l-1-3h0v3h-.9v-4.3Z"/>
    <path class="st0" d="M7.6,6.3h3.2v.8h-2.3v.9h2.1v.7h-2.1v1h2.3v.8h-3.2v-4.3Z"/>
    <path class="st0" d="M12.7,6.3h1l1.6,4.3h-1l-.3-1h-1.6l-.3,1h-1l1.6-4.3ZM12.6,9h1.1l-.5-1.6h0l-.6,1.6Z"/>
    <path class="st3" d="M1.3,13.2c0,.6.4.8.9.8s.8,0,.8-.5-.6-.5-1.3-.7c-.6-.2-1.3-.4-1.3-1.2s.8-1.3,1.6-1.3,1.7.4,1.7,1.4h-.9c0-.5-.4-.6-.8-.6s-.6.1-.6.5.2.4,1.3.6c.3,0,1.3.3,1.3,1.2s-.6,1.4-1.8,1.4-1.8-.5-1.8-1.5h.9Z"/>
    <path class="st3" d="M8.2,13c0,1.2-.7,1.7-1.8,1.7s-1.8-.6-1.8-1.7v-2.7h.9v2.7c0,.5.1.9.9.9s.9-.3.9-.9v-2.7h.9v2.7Z"/>
    <path class="st3" d="M9,10.3h2.3c.8,0,1.3.5,1.3,1.2s-.2.9-.7,1.1h0c.5.1.6.6.6,1,0,.3,0,.8.2,1h-.9c-.1-.3-.1-.7-.1-1,0-.5-.2-.6-.7-.6h-.9v1.7h-.9v-4.3ZM9.9,12.3h1c.4,0,.6-.2.6-.6s-.2-.6-.6-.6h-1v1.2Z"/>
    <path class="st3" d="M13.3,10.3h3.2v.8h-2.3v.9h2.1v.7h-2.1v1h2.3v.8h-3.2v-4.3Z"/>
  </g>
</svg>